PathFileType	4	(X/Y/Z)	C:\Users\Basilio\Documents\Thesis Gigler\squatting_fais\c3dfiles\075\SLS_back_pre5\markers_experimental.trc
DataRate	CameraRate	NumFrames	NumMarkers	Units	OrigDataRate	OrigDataStartFrame	OrigNumFrames
200.000000	200.000000	4	61	mm	200.000000	0	1291
Frame#	Time	FHD			LBHD			C7			T10			CLAV			LSHO			LUUPA			LMUPA			LDUPA			LLEP			LMEP			LRAD			LUL			LRFIN			RSHO			RUPA1			RMUPA			RDUPA			RLEP			RMEP			RRAD			RUL			RUFIN			LASI			RASI			USACR			LSACR			RSACR			LTHI1			LTHI2			LTHI3			LTHI4			LLFC			LMFC			LTIB1			LTIB2			LTIB3			LTIB4			LLMAL			LMMAL			LHEE			LMT1			LMT2			LMT5			RTHI			RTHI2			RTHI3			RTHI4			RLFC			RMFC			RTIB1			RTIB2			RTIB3			RTIB4			RLMAL			RMMAL			RHEE			RMT1			RMT2			RMT5			RBHD			
		X1	Y1	Z1	X2	Y2	Z2	X3	Y3	Z3	X4	Y4	Z4	X5	Y5	Z5	X6	Y6	Z6	X7	Y7	Z7	X8	Y8	Z8	X9	Y9	Z9	X10	Y10	Z10	X11	Y11	Z11	X12	Y12	Z12	X13	Y13	Z13	X14	Y14	Z14	X15	Y15	Z15	X16	Y16	Z16	X17	Y17	Z17	X18	Y18	Z18	X19	Y19	Z19	X20	Y20	Z20	X21	Y21	Z21	X22	Y22	Z22	X23	Y23	Z23	X24	Y24	Z24	X25	Y25	Z25	X26	Y26	Z26	X27	Y27	Z27	X28	Y28	Z28	X29	Y29	Z29	X30	Y30	Z30	X31	Y31	Z31	X32	Y32	Z32	X33	Y33	Z33	X34	Y34	Z34	X35	Y35	Z35	X36	Y36	Z36	X37	Y37	Z37	X38	Y38	Z38	X39	Y39	Z39	X40	Y40	Z40	X41	Y41	Z41	X42	Y42	Z42	X43	Y43	Z43	X44	Y44	Z44	X45	Y45	Z45	X46	Y46	Z46	X47	Y47	Z47	X48	Y48	Z48	X49	Y49	Z49	X50	Y50	Z50	X51	Y51	Z51	X52	Y52	Z52	X53	Y53	Z53	X54	Y54	Z54	X55	Y55	Z55	X56	Y56	Z56	X57	Y57	Z57	X58	Y58	Z58	X59	Y59	Z59	X60	Y60	Z60	X61	Y61	Z61	

1	0	-258.3255310058594	1722.060546875	-896.7242431640627	-380.5855712890626	1590.596313476563	-979.857849121094	-417.5644531250001	1475.451171875	-917.0576782226565	-416.8760986328126	1150.420288085938	-911.8867797851565	-268.5897827148438	1423.917846679688	-909.815856933594	-299.4912719726563	1448.774536132813	-1074.3916015625	-308.0242309570313	1252.471435546875	-1198.00341796875	-267.5266723632813	1229.435424804688	-1178.922241210938	-290.6393127441407	1186.573608398438	-1216.275024414063	-261.4755554199219	1106.480102539063	-1214.173217773438	-333.4965515136719	1086.010009765625	-1157.245239257813	-163.71044921875	1086.20458984375	-981.1025390625002	-117.3027420043946	1045.428833007813	-1023.350830078125	-98.86633300781253	1085.725952148438	-923.5650024414065	-313.9508056640626	1444.654541015625	-747.8281250000001	-324.7505798339844	1245.029541015625	-631.4852905273439	-284.9441528320313	1219.812744140625	-646.7901611328126	-313.9009704589844	1176.81298828125	-614.7395019531251	-290.9105529785157	1108.65283203125	-610.8226928710939	-346.1737060546876	1069.192993164063	-664.9614257812501	-142.2098083496094	1097.33935546875	-840.3787841796877	-113.9952697753907	1053.941162109375	-783.5632934570315	-67.8449172973633	1083.891357421875	-886.6407470703127	-240.1879882812501	985.1585083007815	-1035.243774414063	-233.7403717041016	998.8704833984377	-782.2102050781252	-397.5434875488282	1052.895385742188	-910.5140380859377	-403.328826904297	1020.680358886719	-936.3140258789065	-401.8647460937501	1023.334533691406	-879.3565673828127	-290.3688659667969	741.0929565429689	-1104.472412109375	-261.2278137207032	661.2962646484376	-1101.3603515625	-215.7726593017579	666.0740356445314	-1084.372924804688	-291.5293273925782	609.6058349609376	-1092.55810546875	-301.0619201660157	501.100067138672	-1083.703857421875	-262.9475097656251	483.966033935547	-959.4480590820315	-253.3822937011719	376.0890197753907	-1052.901489257813	-312.2474365234376	342.1977539062501	-1105.565307617188	-272.7795715332032	332.4333190917969	-1084.5947265625	-283.1952819824219	251.1911773681641	-1058.565673828125	-366.2441101074219	118.3147430419922	-1082.142578125	-339.8969726562501	126.0778579711914	-1001.455017089844	-425.1155395507814	87.33724212646486	-1046.051879882813	-219.8379669189454	50.81653976440431	-1011.605102539063	-214.5425109863282	54.42873001098634	-1060.080688476563	-251.3482055664063	42.30581665039063	-1114.5517578125	-295.1492614746094	795.4606933593752	-710.2680664062501	-258.4667358398438	741.7116699218751	-714.7572631835939	-228.1616668701172	747.1503295898439	-727.0968627929689	-288.2685546875001	661.0581665039064	-720.3284301757814	-309.2070922851563	507.4638671875001	-746.6748657226564	-275.1934509277344	495.6790771484376	-871.1015625000002	-275.0829467773438	355.2220458984376	-809.315368652344	-330.5137023925782	284.2612915039063	-747.1189575195314	-296.9756164550782	275.1185607910157	-780.034118652344	-312.7825927734376	230.6469421386719	-815.451110839844	-391.0384216308595	118.9470520019532	-773.689880371094	-362.8969726562501	139.0440521240235	-854.6593017578127	-449.6326599121095	99.55197906494143	-826.1710205078127	-245.2521514892579	57.127010345459	-837.6326293945315	-245.5760803222657	55.583065032959	-795.2312622070315	-282.9092102050782	36.55686187744141	-742.5541381835939	nan	nan	nan	
2	0.005	-258.2940368652344	1722.062744140625	-896.6685791015627	-380.5087585449219	1590.556396484375	-979.8894653320315	-417.5886840820314	1475.469116210938	-917.0542602539065	-416.8392944335939	1150.396728515625	-911.9365844726565	-268.6321716308594	1423.913452148438	-909.7461547851565	-299.4749145507813	1448.753784179688	-1074.360595703125	-307.9852294921876	1252.465698242188	-1197.982177734375	-268.1269531250001	1229.566528320313	-1179.413696289063	-290.5684814453126	1186.567993164063	-1216.221801757813	-261.3604431152344	1106.4619140625	-1214.1025390625	-333.4716491699219	1086.0556640625	-1157.21142578125	-163.779541015625	1085.938232421875	-980.6936035156252	-117.2945098876953	1045.476318359375	-1023.160339355469	-98.95249176025393	1085.711669921875	-923.3682861328127	-314.0351562500001	1444.62841796875	-747.8250122070314	-324.8284606933594	1244.979370117188	-631.4851684570314	-284.9716186523438	1219.749389648438	-646.8150024414064	-313.9735412597657	1176.732543945313	-614.7758178710939	-290.9660339355469	1108.610107421875	-610.8485717773439	-346.1703491210938	1069.143676757813	-665.1487426757814	-142.1744995117188	1097.333740234375	-840.3929443359377	-113.947509765625	1053.93310546875	-783.5278930664065	-67.80915832519533	1083.896484375	-886.5932617187502	-239.3305816650391	984.7945556640627	-1034.799560546875	-233.7425994873047	998.878845214844	-782.171081542969	-397.5560607910157	1052.90234375	-910.5493164062502	-403.3256225585939	1020.68603515625	-936.312683105469	-401.887908935547	1023.310913085938	-879.4017333984377	-290.4068908691407	741.1581420898439	-1104.448120117188	-261.1903381347657	661.2940063476564	-1101.32861328125	-216.2004394531251	665.7319335937501	-1083.450805664063	-291.5125427246094	609.6640625000001	-1092.531616210938	-301.0216674804688	501.0638427734376	-1083.721435546875	-262.9977416992188	483.9721679687501	-959.4803466796877	-253.4266204833985	376.0724487304688	-1052.886840820313	-312.3222045898438	342.1909179687501	-1105.5732421875	-272.7804260253907	332.4028320312501	-1084.60302734375	-283.1773681640626	251.1411743164063	-1058.5791015625	-366.2621154785157	118.3213119506836	-1082.1455078125	-339.9062500000001	126.07421875	-1001.480102539063	-424.4459228515626	86.94198608398439	-1046.1181640625	-219.2910308837891	50.01081466674806	-1010.907287597656	-214.5430755615235	54.43122863769533	-1060.061279296875	-251.3822174072266	42.27123260498048	-1114.5634765625	-295.0805969238282	795.4426879882815	-710.2492065429689	-258.4371948242188	741.6423339843751	-714.7705078125001	-228.1570739746094	747.1406860351564	-727.1108398437501	-288.1908569335938	661.0191040039064	-720.2881469726564	-309.0906982421876	507.419891357422	-746.6487426757814	-276.8510742187501	496.0452880859376	-871.249450683594	-274.9601135253907	355.2171630859376	-809.2988281250002	-330.4352111816407	284.2185058593751	-747.0792846679689	-296.3876953125001	274.9384460449219	-779.8120727539065	-312.7128601074219	230.6346435546876	-815.5097656250002	-391.0064697265626	118.94873046875	-773.7156372070315	-362.8439636230469	139.0835266113282	-854.7058105468752	-449.6074218750001	99.5523376464844	-826.1867675781252	-245.3111267089844	57.15756988525392	-837.6104736328127	-245.6180572509766	55.60688781738283	-795.2495117187502	-282.9297485351563	36.54379653930665	-742.5370483398439	nan	nan	nan	
3	0.01	-258.1940612792969	1722.100341796875	-896.5997314453127	-380.4175720214844	1590.554321289063	-979.8734130859377	-417.5876464843751	1475.4501953125	-917.0833129882815	-416.8742675781251	1150.38427734375	-911.8861083984377	-268.6352233886719	1423.880249023438	-909.747985839844	-299.5274047851563	1448.730590820313	-1074.304077148438	-307.8543090820313	1252.418701171875	-1197.925659179688	-267.3428649902344	1229.40283203125	-1178.77734375	-290.4655151367188	1186.521362304688	-1216.186767578125	-261.2641906738282	1106.427124023438	-1214.028076171875	-333.4334411621094	1086.056884765625	-1157.137084960938	-163.8190155029297	1085.669555664063	-980.3037719726565	-117.3578796386719	1045.470825195313	-1022.947814941406	-99.12614440917972	1085.640869140625	-923.2317504882815	-314.0967712402344	1444.57470703125	-747.8181152343751	-324.8682861328126	1244.891479492188	-631.5498657226564	-285.0682373046876	1219.70458984375	-646.8250732421876	-314.0184936523438	1176.676391601563	-614.8244628906251	-290.9827270507813	1108.543212890625	-610.8689575195314	-346.1815795898438	1069.123291015625	-665.1319580078126	-142.0938262939453	1097.330078125	-840.3374633789065	-113.9064559936524	1053.9296875	-783.4937744140627	-67.79219055175783	1083.898681640625	-886.553161621094	-239.2453765869141	984.8137207031252	-1034.782958984375	-233.8215332031251	998.8540649414065	-782.1340942382815	-397.5239868164064	1052.876831054688	-910.5635375976565	-403.2976684570314	1020.644226074219	-936.3647460937502	-401.8640747070314	1023.326599121094	-879.4360351562502	-290.3312072753907	741.0727539062501	-1104.369995117188	-262.1604309082032	661.6889648437501	-1101.737426757813	-216.2039184570313	665.7009277343751	-1083.449096679688	-290.4834289550782	609.4301757812501	-1092.3173828125	-301.0839233398438	501.0876464843751	-1083.69873046875	-263.0133972167969	483.9562988281251	-959.4584960937502	-253.3855285644532	376.0885620117188	-1052.923950195313	-312.2770996093751	342.1978149414063	-1105.571655273438	-272.7804260253907	332.4028320312501	-1084.60302734375	-283.1720886230469	251.1301269531251	-1058.57666015625	-366.2131652832032	118.3001937866211	-1082.158813476563	-339.9152832031251	126.0934524536133	-1001.480834960938	-424.4213256835939	86.93251037597658	-1046.167358398438	-219.2672119140626	50.06756973266603	-1010.898376464844	-214.5532531738282	54.43806076049806	-1060.023559570313	-251.3964996337891	42.25975418090821	-1114.559204101563	-295.0518188476563	795.3689575195315	-710.1738891601564	-258.3856201171876	741.6143188476564	-714.6866455078126	-228.0923461914063	747.0656738281251	-727.0924072265626	-288.0745849609376	660.9763793945314	-720.2440185546876	-308.9512023925782	507.3823852539064	-746.6613159179689	-274.9504089355469	495.6899414062501	-871.0471191406252	-274.8645019531251	355.1619567871094	-809.3131103515627	-330.3508911132813	284.2233581542969	-747.0815429687501	-296.8135070800782	275.1101379394532	-780.056579589844	-311.9140319824219	230.5677490234376	-814.9553222656252	-390.9967651367189	118.9457397460938	-773.6954345703127	-362.8089599609376	139.0529327392578	-854.7178344726565	-449.5968627929689	99.5489196777344	-826.1765136718752	-245.2934570312501	57.11998748779298	-837.6282348632815	-245.6293334960938	55.57191085815431	-795.248229980469	-282.9249572753907	36.55955886840821	-742.5101928710939	nan	nan	nan	
4	0.015	-258.1950683593751	1722.067993164063	-896.547058105469	-380.3980407714844	1590.509033203125	-979.8057250976565	-417.5587158203126	1475.408081054688	-917.053894042969	-416.9070739746095	1150.352172851563	-911.9355468750002	-268.6820983886719	1423.876586914063	-909.6687011718752	-299.5301513671876	1448.695556640625	-1074.30126953125	-307.7323913574219	1252.380737304688	-1197.866455078125	-267.9647827148438	1229.503051757813	-1179.173217773438	-290.3662719726563	1186.482299804688	-1216.106079101563	-261.1625671386719	1106.359252929688	-1213.924438476563	-333.3857421875001	1086.013549804688	-1157.066040039063	-163.8686065673828	1085.407348632813	-979.9085083007815	-117.3485488891602	1045.456298828125	-1022.759582519531	-99.23464965820315	1085.5439453125	-923.0887451171877	-314.1623535156251	1444.5615234375	-747.8035278320314	-324.9521789550782	1244.838745117188	-631.5851440429689	-285.0941772460938	1219.65771484375	-646.8353271484376	-314.0683593750001	1176.609130859375	-614.8459472656251	-291.0095214843751	1108.517822265625	-610.9085083007814	-346.1469116210938	1068.972290039063	-665.2463989257814	-142.1371459960938	1097.294921875	-840.3708496093752	-113.865966796875	1053.928344726563	-783.4921875000002	-67.84488677978517	1083.891357421875	-886.6407470703127	-240.1176910400391	985.1262207031252	-1035.177124023438	-233.8181762695313	998.8435058593752	-782.1345214843752	-397.5203552246095	1052.818115234375	-910.610534667969	-403.2978820800782	1020.662048339844	-936.3741455078127	-401.9140014648439	1023.328491210938	-879.4609985351565	-290.2981872558594	741.0722656250001	-1104.286865234375	-262.1947937011719	661.6757202148439	-1101.734008789063	-216.1934967041016	665.7531738281251	-1083.408935546875	-291.5305786132813	609.6041870117189	-1092.475219726563	-301.0878295898438	501.057586669922	-1083.69482421875	-262.9872436523438	483.9356079101564	-959.4793090820315	-253.3956604003907	376.0686035156251	-1052.891845703125	-312.2685852050782	342.1996459960938	-1105.5947265625	-272.8038940429688	332.3768615722657	-1084.579956054688	-283.1720886230469	251.1301269531251	-1058.57666015625	-366.2204284667969	118.2803497314453	-1082.194946289063	-339.8964538574219	126.0938873291016	-1001.46240234375	-425.1082153320314	87.25802612304689	-1046.136474609375	-219.2903594970704	50.03541564941408	-1010.917053222656	-214.5404510498047	54.44911193847658	-1060.094970703125	-251.3759002685547	42.27482604980469	-1114.590942382813	-294.9895935058594	795.334167480469	-710.1658935546876	-258.3479919433594	741.6017456054689	-714.6597290039064	-228.2299194335938	747.1508789062501	-727.2100830078126	-287.9979248046876	660.9091796875001	-720.1843261718751	-308.7917480468751	507.3550109863282	-746.5855712890626	-274.7670288085938	495.7000427246095	-871.0229492187502	-274.7570495605469	355.1238098144532	-809.3309326171877	-330.2705993652344	284.1646423339844	-747.0994873046876	-296.2268371582032	274.8746032714844	-779.874206542969	-312.6592712402344	230.5637969970704	-815.4976196289065	-390.9691467285157	118.9690170288086	-773.6972656250002	-364.1047363281251	139.4261932373047	-854.9954223632815	-449.5863342285157	99.55934143066409	-826.1737060546877	-245.242660522461	57.12905883789064	-837.6052246093752	-245.6186523437501	55.61017990112306	-795.262390136719	-282.9255676269532	36.55690002441407	-742.5568847656251	nan	nan	nan	
